<svg width="25" height="20" viewBox="0 0 25 20" fill="none" xmlns="http://www.w3.org/2000/svg">
<path d="M24 1.8534C24.0075 1.76467 24.0075 1.67546 24 1.58673L23.88 1.3334C23.88 1.3334 23.88 1.24006 23.8133 1.20006L23.7467 1.1334L23.5333 0.960065C23.475 0.900734 23.4075 0.851209 23.3333 0.813398L23.1067 0.733398H22.84H1.24H0.973333L0.746667 0.826731C0.672327 0.858424 0.604514 0.903633 0.546667 0.960065L0.333333 1.1334C0.333333 1.1334 0.333333 1.1334 0.333333 1.20006C0.333333 1.26673 0.333333 1.2934 0.266667 1.3334L0.146667 1.58673C0.13912 1.67546 0.13912 1.76467 0.146667 1.8534L0 2.00006V18.0001C0 18.3537 0.140476 18.6928 0.390524 18.9429C0.640573 19.1929 0.979711 19.3334 1.33333 19.3334H13.3333C13.687 19.3334 14.0261 19.1929 14.2761 18.9429C14.5262 18.6928 14.6667 18.3537 14.6667 18.0001C14.6667 17.6464 14.5262 17.3073 14.2761 17.0573C14.0261 16.8072 13.687 16.6667 13.3333 16.6667H2.66667V4.66673L11.2 11.0667C11.4308 11.2398 11.7115 11.3334 12 11.3334C12.2885 11.3334 12.5692 11.2398 12.8 11.0667L21.3333 4.66673V16.6667H18.6667C18.313 16.6667 17.9739 16.8072 17.7239 17.0573C17.4738 17.3073 17.3333 17.6464 17.3333 18.0001C17.3333 18.3537 17.4738 18.6928 17.7239 18.9429C17.9739 19.1929 18.313 19.3334 18.6667 19.3334H22.6667C23.0203 19.3334 23.3594 19.1929 23.6095 18.9429C23.8595 18.6928 24 18.3537 24 18.0001V2.00006C24 2.00006 24 1.90673 24 1.8534ZM12 8.3334L5.33333 3.3334H18.6667L12 8.3334Z" fill="#6F96AA"/>
</svg>
