<svg width="22" height="24" viewBox="0 0 22 24" fill="none" xmlns="http://www.w3.org/2000/svg">
<path d="M13.6666 9.33317H16.3333C16.6869 9.33317 17.026 9.19269 17.2761 8.94265C17.5261 8.6926 17.6666 8.35346 17.6666 7.99984C17.6666 7.64622 17.5261 7.30708 17.2761 7.05703C17.026 6.80698 16.6869 6.6665 16.3333 6.6665H13.6666C13.313 6.6665 12.9738 6.80698 12.7238 7.05703C12.4737 7.30708 12.3333 7.64622 12.3333 7.99984C12.3333 8.35346 12.4737 8.6926 12.7238 8.94265C12.9738 9.19269 13.313 9.33317 13.6666 9.33317ZM17.6666 15.9998C17.6666 15.6462 17.5261 15.3071 17.2761 15.057C17.026 14.807 16.6869 14.6665 16.3333 14.6665H13.6666C13.313 14.6665 12.9738 14.807 12.7238 15.057C12.4737 15.3071 12.3333 15.6462 12.3333 15.9998C12.3333 16.3535 12.4737 16.6926 12.7238 16.9426C12.9738 17.1927 13.313 17.3332 13.6666 17.3332H16.3333C16.6869 17.3332 17.026 17.1927 17.2761 16.9426C17.5261 16.6926 17.6666 16.3535 17.6666 15.9998Z" fill="#6F96AA"/>
<path d="M20.3333 0H1.66659C1.31296 0 0.973825 0.140476 0.723776 0.390524C0.473728 0.640573 0.333252 0.979711 0.333252 1.33333V22.6667C0.333252 23.0203 0.473728 23.3594 0.723776 23.6095C0.973825 23.8595 1.31296 24 1.66659 24H10.9999C11.3535 24 11.6927 23.8595 11.9427 23.6095C12.1928 23.3594 12.3333 23.0203 12.3333 22.6667C12.3333 22.313 12.1928 21.9739 11.9427 21.7239C11.6927 21.4738 11.3535 21.3333 10.9999 21.3333H2.99992V2.66667H18.9999V21.3333H16.3333C15.9796 21.3333 15.6405 21.4738 15.3904 21.7239C15.1404 21.9739 14.9999 22.313 14.9999 22.6667C14.9999 23.0203 15.1404 23.3594 15.3904 23.6095C15.6405 23.8595 15.9796 24 16.3333 24H20.3333C20.6869 24 21.026 23.8595 21.2761 23.6095C21.5261 23.3594 21.6666 23.0203 21.6666 22.6667V1.33333C21.6666 0.979711 21.5261 0.640573 21.2761 0.390524C21.026 0.140476 20.6869 0 20.3333 0Z" fill="#6F96AA"/>
<path d="M10.6133 5.72008C10.4894 5.59511 10.3419 5.49592 10.1794 5.42823C10.017 5.36053 9.84269 5.32568 9.66667 5.32568C9.49065 5.32568 9.31638 5.36053 9.1539 5.42823C8.99142 5.49592 8.84395 5.59511 8.72 5.72008L7 7.45341L6.61334 7.05341C6.36227 6.80234 6.02174 6.66129 5.66667 6.66129C5.3116 6.66129 4.97107 6.80234 4.72 7.05341C4.46893 7.30449 4.32788 7.64501 4.32788 8.00008C4.32788 8.17589 4.36251 8.34999 4.42979 8.51241C4.49707 8.67484 4.59569 8.82243 4.72 8.94675L6.05334 10.2801C6.17729 10.4051 6.32476 10.5042 6.48723 10.5719C6.64971 10.6396 6.82399 10.6745 7 10.6745C7.17602 10.6745 7.35029 10.6396 7.51277 10.5719C7.67525 10.5042 7.82272 10.4051 7.94667 10.2801L10.6133 7.61341C10.7383 7.48946 10.8375 7.342 10.9052 7.17952C10.9729 7.01704 11.0077 6.84276 11.0077 6.66675C11.0077 6.49073 10.9729 6.31646 10.9052 6.15398C10.8375 5.9915 10.7383 5.84403 10.6133 5.72008ZM8.72 13.7201L7 15.4534L6.61334 15.0534C6.36227 14.8023 6.02174 14.6613 5.66667 14.6613C5.3116 14.6613 4.97107 14.8023 4.72 15.0534C4.46893 15.3045 4.32788 15.645 4.32788 16.0001C4.32788 16.1759 4.36251 16.35 4.42979 16.5124C4.49707 16.6748 4.59569 16.8224 4.72 16.9467L6.05334 18.2801C6.17729 18.4051 6.32476 18.5042 6.48723 18.5719C6.64971 18.6396 6.82399 18.6745 7 18.6745C7.17602 18.6745 7.35029 18.6396 7.51277 18.5719C7.67525 18.5042 7.82272 18.4051 7.94667 18.2801L10.6133 15.6134C10.8644 15.3623 11.0055 15.0218 11.0055 14.6667C11.0055 14.3117 10.8644 13.9712 10.6133 13.7201C10.3623 13.469 10.0217 13.328 9.66667 13.328C9.3116 13.328 8.97108 13.469 8.72 13.7201Z" fill="#6F96AA"/>
</svg>
