<svg width="22" height="24" viewBox="0 0 22 24" fill="none" xmlns="http://www.w3.org/2000/svg">
<path d="M20.3333 23.9998H17.6666C17.313 23.9998 16.9738 23.8593 16.7238 23.6093C16.4737 23.3592 16.3333 23.0201 16.3333 22.6665C16.3333 22.3129 16.4737 21.9737 16.7238 21.7237C16.9738 21.4736 17.313 21.3332 17.6666 21.3332H18.9999V17.1732C18.9954 16.8017 18.9106 16.4357 18.7513 16.1002C18.5919 15.7647 18.3618 15.4676 18.0768 15.2294C17.7917 14.9913 17.4585 14.8176 17.1 14.7205C16.7415 14.6233 16.3662 14.6049 15.9999 14.6665L11.8933 18.3465C11.6483 18.5676 11.3299 18.69 10.9999 18.69C10.6699 18.69 10.3516 18.5676 10.1066 18.3465L5.99992 14.6665C5.63362 14.6049 5.25833 14.6233 4.89983 14.7205C4.54132 14.8176 4.20811 14.9913 3.92307 15.2294C3.63803 15.4676 3.40793 15.7647 3.24858 16.1002C3.08922 16.4357 3.0044 16.8017 2.99992 17.1732V21.3332H12.3333C12.6869 21.3332 13.026 21.4736 13.2761 21.7237C13.5261 21.9737 13.6666 22.3129 13.6666 22.6665C13.6666 23.0201 13.5261 23.3592 13.2761 23.6093C13.026 23.8593 12.6869 23.9998 12.3333 23.9998H1.66659C1.31296 23.9998 0.973825 23.8593 0.723776 23.6093C0.473728 23.3592 0.333252 23.0201 0.333252 22.6665V17.1732C0.336275 16.3643 0.526026 15.5671 0.887717 14.8436C1.24941 14.1202 1.77327 13.49 2.41848 13.0022C3.06369 12.5144 3.81282 12.1822 4.60749 12.0315C5.40216 11.8807 6.2209 11.9155 6.99992 12.1332C7.19066 12.1962 7.36728 12.2959 7.51992 12.4265L10.9999 15.5465L14.4666 12.4265C14.6232 12.2943 14.8045 12.1946 14.9999 12.1332C15.7789 11.9155 16.5977 11.8807 17.3923 12.0315C18.187 12.1822 18.9361 12.5144 19.5814 13.0022C20.2266 13.49 20.7504 14.1202 21.1121 14.8436C21.4738 15.5671 21.6636 16.3643 21.6666 17.1732V22.6665C21.6666 23.0201 21.5261 23.3592 21.2761 23.6093C21.026 23.8593 20.6869 23.9998 20.3333 23.9998Z" fill="#6F96AA"/>
<path d="M10.9999 13.3333C9.68138 13.3333 8.39245 12.9423 7.29612 12.2098C6.19979 11.4773 5.34531 10.4361 4.84072 9.21789C4.33614 7.99972 4.20412 6.65927 4.46135 5.36607C4.71859 4.07286 5.35353 2.88497 6.28588 1.95262C7.21823 1.02027 8.40611 0.385336 9.69932 0.128101C10.9925 -0.129134 12.333 0.00288856 13.5511 0.507473C14.7693 1.01206 15.8105 1.86654 16.5431 2.96287C17.2756 4.0592 17.6666 5.34813 17.6666 6.66667C17.6666 8.43478 16.9642 10.1305 15.714 11.3807C14.4637 12.631 12.768 13.3333 10.9999 13.3333ZM10.9999 2.66667C10.2088 2.66667 9.43544 2.90127 8.77764 3.34079C8.11984 3.78032 7.60715 4.40503 7.3044 5.13594C7.00165 5.86684 6.92244 6.67111 7.07678 7.44703C7.23112 8.22296 7.61208 8.93569 8.17149 9.4951C8.7309 10.0545 9.44364 10.4355 10.2196 10.5898C10.9955 10.7442 11.7998 10.6649 12.5307 10.3622C13.2616 10.0594 13.8863 9.54675 14.3258 8.88895C14.7653 8.23115 14.9999 7.4578 14.9999 6.66667C14.9999 5.6058 14.5785 4.58839 13.8284 3.83824C13.0782 3.0881 12.0608 2.66667 10.9999 2.66667Z" fill="#6F96AA"/>
</svg>
