<svg width="25" height="24" viewBox="0 0 25 24" fill="none" xmlns="http://www.w3.org/2000/svg">
<path d="M11.2812 9.33333H14.6678C15.0215 9.33333 15.3606 9.19286 15.6106 8.94281C15.8607 8.69276 16.0012 8.35362 16.0012 8C16.0012 7.64638 15.8607 7.30724 15.6106 7.05719C15.3606 6.80714 15.0215 6.66667 14.6678 6.66667H13.3345V5.33333C13.3345 4.97971 13.194 4.64057 12.944 4.39052C12.6939 4.14048 12.3548 4 12.0012 4C11.6475 4 11.3084 4.14048 11.0584 4.39052C10.8083 4.64057 10.6678 4.97971 10.6678 5.33333V6.66667C10.6678 6.66667 10.6678 6.66667 10.6678 6.73333C9.86186 6.89655 9.14466 7.35193 8.65412 8.01194C8.16357 8.67194 7.93431 9.48998 8.0104 10.3088C8.08649 11.1276 8.46257 11.8894 9.06633 12.4477C9.67009 13.006 10.4589 13.3214 11.2812 13.3333H12.7212C12.8095 13.3383 12.8958 13.3611 12.9751 13.4004C13.0543 13.4397 13.1247 13.4947 13.182 13.562C13.2394 13.6293 13.2825 13.7076 13.3087 13.792C13.3349 13.8765 13.3437 13.9654 13.3345 14.0533C13.3311 14.2149 13.2654 14.369 13.1511 14.4833C13.0368 14.5976 12.8828 14.6633 12.7212 14.6667H9.3345C8.98088 14.6667 8.64174 14.8071 8.39169 15.0572C8.14164 15.3072 8.00117 15.6464 8.00117 16C8.00117 16.3536 8.14164 16.6928 8.39169 16.9428C8.64174 17.1929 8.98088 17.3333 9.3345 17.3333H10.6678V18.6667C10.6678 19.0203 10.8083 19.3594 11.0584 19.6095C11.3084 19.8595 11.6475 20 12.0012 20C12.3548 20 12.6939 19.8595 12.944 19.6095C13.194 19.3594 13.3345 19.0203 13.3345 18.6667V17.3333C13.3345 17.3333 13.3345 17.3333 13.3345 17.2667C14.1405 17.1034 14.8577 16.6481 15.3482 15.9881C15.8388 15.3281 16.068 14.51 15.9919 13.6912C15.9158 12.8724 15.5398 12.1106 14.936 11.5523C14.3322 10.994 13.5434 10.6786 12.7212 10.6667H11.2812C11.1929 10.6617 11.1065 10.6389 11.0273 10.5996C10.9481 10.5603 10.8777 10.5053 10.8203 10.438C10.763 10.3707 10.7199 10.2924 10.6937 10.208C10.6675 10.1235 10.6587 10.0346 10.6678 9.94667C10.6712 9.78507 10.7369 9.63103 10.8512 9.51674C10.9655 9.40245 11.1196 9.33674 11.2812 9.33333Z" fill="#6F96AA"/>
<path d="M12.0007 9.54718e-05C9.99243 0.000624735 8.01636 0.505191 6.25364 1.46755C4.49092 2.42992 2.99792 3.8193 1.91146 5.50836C0.825011 7.19743 0.179852 9.13217 0.0351138 11.1353C-0.109625 13.1384 0.250686 15.1457 1.08303 16.9735C1.91537 18.8012 3.19311 20.3908 4.79917 21.5965C6.40523 22.8023 8.28823 23.5857 10.2756 23.875C12.263 24.1642 14.2912 23.9501 16.1743 23.2521C18.0574 22.5542 19.7353 21.3947 21.0541 19.8801C21.2875 19.6131 21.4052 19.2643 21.3815 18.9105C21.3577 18.5567 21.1944 18.2268 20.9274 17.9934C20.6604 17.76 20.3117 17.6423 19.9578 17.666C19.604 17.6898 19.2741 17.8531 19.0407 18.1201C17.6046 19.77 15.6347 20.8631 13.4747 21.2085C11.3148 21.554 9.10219 21.1298 7.22312 20.0101C5.34406 18.8905 3.91795 17.1464 3.19377 15.0823C2.46959 13.0183 2.49335 10.7655 3.2609 8.71726C4.02844 6.66898 5.49102 4.95535 7.39327 3.87554C9.29553 2.79572 11.5166 2.41833 13.6688 2.80925C15.8209 3.20017 17.7674 4.33457 19.1684 6.01439C20.5694 7.6942 21.3359 9.81273 21.3341 12.0001C21.3365 12.6 21.2785 13.1986 21.1607 13.7868C21.0936 14.1404 21.1696 14.5062 21.3721 14.8038C21.5747 15.1013 21.8871 15.3062 22.2407 15.3734C22.5944 15.4406 22.9602 15.3646 23.2578 15.162C23.5553 14.9595 23.7602 14.6471 23.8274 14.2934C24.1665 12.5518 24.1152 10.7567 23.6771 9.03732C23.2391 7.31794 22.4252 5.71709 21.2941 4.35007C20.163 2.98305 18.7428 1.88386 17.1358 1.13168C15.5288 0.379489 13.775 -0.0069817 12.0007 9.54718e-05Z" fill="#6F96AA"/>
</svg>
