<svg width="24" height="20" viewBox="0 0 24 20" fill="none" xmlns="http://www.w3.org/2000/svg">
<path d="M22.6667 0.666504H18.6667C18.313 0.666504 17.9739 0.80698 17.7239 1.05703C17.4738 1.30708 17.3333 1.64622 17.3333 1.99984C17.3333 2.35346 17.4738 2.6926 17.7239 2.94265C17.9739 3.19269 18.313 3.33317 18.6667 3.33317H21.3333V5.99984H2.66667V3.33317H13.3333C13.687 3.33317 14.0261 3.19269 14.2761 2.94265C14.5262 2.6926 14.6667 2.35346 14.6667 1.99984C14.6667 1.64622 14.5262 1.30708 14.2761 1.05703C14.0261 0.80698 13.687 0.666504 13.3333 0.666504H1.33333C0.979711 0.666504 0.640573 0.80698 0.390524 1.05703C0.140476 1.30708 0 1.64622 0 1.99984V17.9998C0 18.3535 0.140476 18.6926 0.390524 18.9426C0.640573 19.1927 0.979711 19.3332 1.33333 19.3332H22.6667C23.0203 19.3332 23.3594 19.1927 23.6095 18.9426C23.8595 18.6926 24 18.3535 24 17.9998V1.99984C24 1.64622 23.8595 1.30708 23.6095 1.05703C23.3594 0.80698 23.0203 0.666504 22.6667 0.666504ZM21.3333 16.6665H2.66667V8.6665H21.3333V16.6665Z" fill="#6F96AA"/>
<path d="M10.6666 15.3332H18.6666C19.0202 15.3332 19.3593 15.1927 19.6094 14.9426C19.8594 14.6926 19.9999 14.3535 19.9999 13.9998C19.9999 13.6462 19.8594 13.3071 19.6094 13.057C19.3593 12.807 19.0202 12.6665 18.6666 12.6665H10.6666C10.313 12.6665 9.97383 12.807 9.72378 13.057C9.47373 13.3071 9.33325 13.6462 9.33325 13.9998C9.33325 14.3535 9.47373 14.6926 9.72378 14.9426C9.97383 15.1927 10.313 15.3332 10.6666 15.3332Z" fill="#6F96AA"/>
</svg>
