<svg width="24" height="24" viewBox="0 0 24 24" fill="none" xmlns="http://www.w3.org/2000/svg">
<path d="M5.33333 17.3335C4.97971 17.3335 4.64057 17.474 4.39052 17.724C4.14048 17.9741 4 18.3132 4 18.6668C4 19.0205 4.14048 19.3596 4.39052 19.6096C4.64057 19.8597 4.97971 20.0002 5.33333 20.0002H10.6667C11.0203 20.0002 11.3594 19.8597 11.6095 19.6096C11.8595 19.3596 12 19.0205 12 18.6668C12 18.3132 11.8595 17.9741 11.6095 17.724C11.3594 17.474 11.0203 17.3335 10.6667 17.3335H5.33333Z" fill="#6F96AA"/>
<path d="M22.6667 1.33333H14.6667C14.5155 1.33736 14.3664 1.36899 14.2267 1.42667C13.8313 0.978305 13.345 0.619207 12.8002 0.373229C12.2554 0.127251 11.6645 2.39456e-05 11.0667 0H1.33333C0.979711 0 0.640573 0.140476 0.390524 0.390524C0.140476 0.640573 0 0.979711 0 1.33333V22.6667C0 23.0203 0.140476 23.3594 0.390524 23.6095C0.640573 23.8595 0.979711 24 1.33333 24H13.3333C13.687 24 14.0261 23.8595 14.2761 23.6095C14.5262 23.3594 14.6667 23.0203 14.6667 22.6667C14.6667 22.313 14.5262 21.9739 14.2761 21.7239C14.0261 21.4738 13.687 21.3333 13.3333 21.3333H2.66667V8H21.3333V21.3333H18.6667C18.313 21.3333 17.9739 21.4738 17.7239 21.7239C17.4738 21.9739 17.3333 22.313 17.3333 22.6667C17.3333 23.0203 17.4738 23.3594 17.7239 23.6095C17.9739 23.8595 18.313 24 18.6667 24H22.6667C23.0203 24 23.3594 23.8595 23.6095 23.6095C23.8595 23.3594 24 23.0203 24 22.6667V2.66667C24 2.31304 23.8595 1.97391 23.6095 1.72386C23.3594 1.47381 23.0203 1.33333 22.6667 1.33333ZM2.66667 5.33333V2.66667H11.0667C11.4158 2.66779 11.7546 2.785 12.0298 2.99984C12.305 3.21467 12.5009 3.51493 12.5867 3.85333L12.96 5.33333H2.66667ZM15.7067 5.33333L15.3733 4H21.3333V5.33333H15.7067Z" fill="#6F96AA"/>
</svg>
