<svg width="22" height="24" viewBox="0 0 22 24" fill="none" xmlns="http://www.w3.org/2000/svg">
<path d="M21.3735 7.17333L16.0402 0.506667C15.916 0.349528 15.758 0.222381 15.578 0.134666C15.3979 0.0469515 15.2004 0.000923313 15.0002 0H1.66683C1.31321 0 0.974069 0.140476 0.724021 0.390524C0.473972 0.640573 0.333496 0.979711 0.333496 1.33333V8C0.333496 8.35362 0.473972 8.69276 0.724021 8.94281C0.974069 9.19286 1.31321 9.33333 1.66683 9.33333C2.02045 9.33333 2.35959 9.19286 2.60964 8.94281C2.85969 8.69276 3.00016 8.35362 3.00016 8V2.66667H12.3335V8C12.3335 8.35362 12.474 8.69276 12.724 8.94281C12.9741 9.19286 13.3132 9.33333 13.6668 9.33333H19.0002V21.3333H3.00016V14.6667C3.00016 14.313 2.85969 13.9739 2.60964 13.7239C2.35959 13.4738 2.02045 13.3333 1.66683 13.3333C1.31321 13.3333 0.974069 13.4738 0.724021 13.7239C0.473972 13.9739 0.333496 14.313 0.333496 14.6667V22.6667C0.333496 23.0203 0.473972 23.3594 0.724021 23.6095C0.974069 23.8595 1.31321 24 1.66683 24H20.3335C20.6871 24 21.0263 23.8595 21.2763 23.6095C21.5264 23.3594 21.6668 23.0203 21.6668 22.6667V8C21.6651 7.69925 21.5617 7.40792 21.3735 7.17333ZM15.0002 3.46667L17.5602 6.66667H15.0002V3.46667Z" fill="#3CC2E0"/>
<path d="M11 10.6665C10.6464 10.6665 10.3072 10.807 10.0572 11.057C9.80714 11.3071 9.66667 11.6462 9.66667 11.9998V13.3332H8.33333C7.97971 13.3332 7.64057 13.4736 7.39052 13.7237C7.14048 13.9737 7 14.3129 7 14.6665C7 15.0201 7.14048 15.3593 7.39052 15.6093C7.64057 15.8594 7.97971 15.9998 8.33333 15.9998H9.66667V17.3332C9.66667 17.6868 9.80714 18.0259 10.0572 18.276C10.3072 18.526 10.6464 18.6665 11 18.6665C11.3536 18.6665 11.6928 18.526 11.9428 18.276C12.1929 18.0259 12.3333 17.6868 12.3333 17.3332V15.9998H13.6667C14.0203 15.9998 14.3594 15.8594 14.6095 15.6093C14.8595 15.3593 15 15.0201 15 14.6665C15 14.3129 14.8595 13.9737 14.6095 13.7237C14.3594 13.4736 14.0203 13.3332 13.6667 13.3332H12.3333V11.9998C12.3333 11.6462 12.1929 11.3071 11.9428 11.057C11.6928 10.807 11.3536 10.6665 11 10.6665Z" fill="#3CC2E0"/>
</svg>
