<svg width="20" height="24" viewBox="0 0 20 24" fill="none" xmlns="http://www.w3.org/2000/svg">
<path d="M17.9976 24H15.331C14.9774 24 14.6382 23.8595 14.3882 23.6095C14.1381 23.3594 13.9976 23.0203 13.9976 22.6667C13.9976 22.313 14.1381 21.9739 14.3882 21.7239C14.6382 21.4738 14.9774 21.3333 15.331 21.3333H16.6643V2.66667H3.33097V21.3333H9.99764C10.3513 21.3333 10.6904 21.4738 10.9404 21.7239C11.1905 21.9739 11.331 22.313 11.331 22.6667C11.331 23.0203 11.1905 23.3594 10.9404 23.6095C10.6904 23.8595 10.3513 24 9.99764 24H1.99764C1.64402 24 1.30488 23.8595 1.05483 23.6095C0.804783 23.3594 0.664307 23.0203 0.664307 22.6667V1.33333C0.664307 0.979711 0.804783 0.640573 1.05483 0.390524C1.30488 0.140476 1.64402 0 1.99764 0H17.9976C18.3513 0 18.6904 0.140476 18.9405 0.390524C19.1905 0.640573 19.331 0.979711 19.331 1.33333V22.6667C19.331 23.0203 19.1905 23.3594 18.9405 23.6095C18.6904 23.8595 18.3513 24 17.9976 24Z" fill="#6F96AA"/>
<path d="M13.9976 8.0026H5.99764C5.64402 8.0026 5.30488 7.86213 5.05483 7.61208C4.80478 7.36203 4.66431 7.02289 4.66431 6.66927C4.66431 6.31565 4.80478 5.97651 5.05483 5.72646C5.30488 5.47641 5.64402 5.33594 5.99764 5.33594H13.9976C14.3513 5.33594 14.6904 5.47641 14.9404 5.72646C15.1905 5.97651 15.331 6.31565 15.331 6.66927C15.331 7.02289 15.1905 7.36203 14.9404 7.61208C14.6904 7.86213 14.3513 8.0026 13.9976 8.0026ZM13.9976 13.3359H5.99764C5.64402 13.3359 5.30488 13.1955 5.05483 12.9454C4.80478 12.6954 4.66431 12.3562 4.66431 12.0026C4.66431 11.649 4.80478 11.3098 5.05483 11.0598C5.30488 10.8097 5.64402 10.6693 5.99764 10.6693H13.9976C14.3513 10.6693 14.6904 10.8097 14.9404 11.0598C15.1905 11.3098 15.331 11.649 15.331 12.0026C15.331 12.3562 15.1905 12.6954 14.9404 12.9454C14.6904 13.1955 14.3513 13.3359 13.9976 13.3359ZM13.9976 18.6693H5.99764C5.64402 18.6693 5.30488 18.5288 5.05483 18.2787C4.80478 18.0287 4.66431 17.6896 4.66431 17.3359C4.66431 16.9823 4.80478 16.6432 5.05483 16.3931C5.30488 16.1431 5.64402 16.0026 5.99764 16.0026H13.9976C14.3513 16.0026 14.6904 16.1431 14.9404 16.3931C15.1905 16.6432 15.331 16.9823 15.331 17.3359C15.331 17.6896 15.1905 18.0287 14.9404 18.2787C14.6904 18.5288 14.3513 18.6693 13.9976 18.6693Z" fill="#6F96AA"/>
</svg>
