<svg width="24" height="24" viewBox="0 0 24 24" fill="none" xmlns="http://www.w3.org/2000/svg">
<path d="M1.33333 24C1.16446 24.0004 0.997051 23.9687 0.840001 23.9067C0.591914 23.8079 0.37921 23.6368 0.229442 23.4158C0.0796736 23.1947 -0.000257884 22.9337 6.25062e-07 22.6667V1.33333C6.25062e-07 0.979711 0.140476 0.640573 0.390525 0.390524C0.640573 0.140476 0.979712 0 1.33333 0H22.6667C23.0203 0 23.3594 0.140476 23.6095 0.390524C23.8595 0.640573 24 0.979711 24 1.33333V5.33333C24 5.68696 23.8595 6.02609 23.6095 6.27614C23.3594 6.52619 23.0203 6.66667 22.6667 6.66667C22.313 6.66667 21.9739 6.52619 21.7239 6.27614C21.4738 6.02609 21.3333 5.68696 21.3333 5.33333V2.66667H2.66667V19.3067L5.33333 16.4267C5.46219 16.2876 5.61923 16.1776 5.79397 16.104C5.96871 16.0304 6.15714 15.995 6.34667 16H21.3333V10.6667C21.3333 10.313 21.4738 9.97391 21.7239 9.72386C21.9739 9.47381 22.313 9.33333 22.6667 9.33333C23.0203 9.33333 23.3594 9.47381 23.6095 9.72386C23.8595 9.97391 24 10.313 24 10.6667V17.3333C24 17.687 23.8595 18.0261 23.6095 18.2761C23.3594 18.5262 23.0203 18.6667 22.6667 18.6667H6.92L2.30667 23.5733C2.18235 23.7074 2.03179 23.8144 1.86435 23.8878C1.69691 23.9612 1.51616 23.9994 1.33333 24Z" fill="#4E7D96"/>
<path d="M17.3335 8.00016H6.66683C6.31321 8.00016 5.97407 7.85969 5.72402 7.60964C5.47397 7.35959 5.3335 7.02045 5.3335 6.66683C5.3335 6.31321 5.47397 5.97407 5.72402 5.72402C5.97407 5.47397 6.31321 5.3335 6.66683 5.3335H17.3335C17.6871 5.3335 18.0263 5.47397 18.2763 5.72402C18.5264 5.97407 18.6668 6.31321 18.6668 6.66683C18.6668 7.02045 18.5264 7.35959 18.2763 7.60964C18.0263 7.85969 17.6871 8.00016 17.3335 8.00016ZM17.3335 13.3335H6.66683C6.31321 13.3335 5.97407 13.193 5.72402 12.943C5.47397 12.6929 5.3335 12.3538 5.3335 12.0002C5.3335 11.6465 5.47397 11.3074 5.72402 11.0574C5.97407 10.8073 6.31321 10.6668 6.66683 10.6668H17.3335C17.6871 10.6668 18.0263 10.8073 18.2763 11.0574C18.5264 11.3074 18.6668 11.6465 18.6668 12.0002C18.6668 12.3538 18.5264 12.6929 18.2763 12.943C18.0263 13.193 17.6871 13.3335 17.3335 13.3335Z" fill="#4E7D96"/>
</svg>
