<svg width="24" height="24" viewBox="0 0 24 24" fill="none" xmlns="http://www.w3.org/2000/svg">
<path d="M22.6667 0H1.33333C0.979711 0 0.640573 0.140476 0.390524 0.390524C0.140476 0.640573 0 0.979711 0 1.33333V22.6667C0 23.0203 0.140476 23.3594 0.390524 23.6095C0.640573 23.8595 0.979711 24 1.33333 24H13.3333C13.687 24 14.0261 23.8595 14.2761 23.6095C14.5262 23.3594 14.6667 23.0203 14.6667 22.6667C14.6667 22.313 14.5262 21.9739 14.2761 21.7239C14.0261 21.4738 13.687 21.3333 13.3333 21.3333H2.66667V13.3333H21.3333V21.3333H18.6667C18.313 21.3333 17.9739 21.4738 17.7239 21.7239C17.4738 21.9739 17.3333 22.313 17.3333 22.6667C17.3333 23.0203 17.4738 23.3594 17.7239 23.6095C17.9739 23.8595 18.313 24 18.6667 24H22.6667C23.0203 24 23.3594 23.8595 23.6095 23.6095C23.8595 23.3594 24 23.0203 24 22.6667V1.33333C24 0.979711 23.8595 0.640573 23.6095 0.390524C23.3594 0.140476 23.0203 0 22.6667 0ZM2.66667 10.6667V2.66667H21.3333V10.6667H2.66667Z" fill="#6F96AA"/>
<path d="M17.3334 16C17.3334 15.6464 17.1929 15.3072 16.9429 15.0572C16.6928 14.8071 16.3537 14.6667 16.0001 14.6667C15.6465 14.6667 15.3073 14.8071 15.0573 15.0572C14.8072 15.3072 14.6667 15.6464 14.6667 16H9.33341C9.33341 15.6464 9.19294 15.3072 8.94289 15.0572C8.69284 14.8071 8.3537 14.6667 8.00008 14.6667C7.64646 14.6667 7.30732 14.8071 7.05727 15.0572C6.80722 15.3072 6.66675 15.6464 6.66675 16V17.3333C6.66675 17.687 6.80722 18.0261 7.05727 18.2761C7.30732 18.5262 7.64646 18.6667 8.00008 18.6667H16.0001C16.3537 18.6667 16.6928 18.5262 16.9429 18.2761C17.1929 18.0261 17.3334 17.687 17.3334 17.3333V16ZM16.0001 4C15.6465 4 15.3073 4.14048 15.0573 4.39052C14.8072 4.64057 14.6667 4.97971 14.6667 5.33333H9.33341C9.33341 4.97971 9.19294 4.64057 8.94289 4.39052C8.69284 4.14048 8.3537 4 8.00008 4C7.64646 4 7.30732 4.14048 7.05727 4.39052C6.80722 4.64057 6.66675 4.97971 6.66675 5.33333V6.66667C6.66675 7.02029 6.80722 7.35943 7.05727 7.60948C7.30732 7.85952 7.64646 8 8.00008 8H16.0001C16.3537 8 16.6928 7.85952 16.9429 7.60948C17.1929 7.35943 17.3334 7.02029 17.3334 6.66667V5.33333C17.3334 4.97971 17.1929 4.64057 16.9429 4.39052C16.6928 4.14048 16.3537 4 16.0001 4Z" fill="#6F96AA"/>
</svg>
