<svg width="24" height="25" viewBox="0 0 24 25" fill="none" xmlns="http://www.w3.org/2000/svg">
<path d="M19.7733 16.1465C20.4259 15.6344 20.9032 14.9321 21.139 14.1367C21.3748 13.3414 21.3574 12.4924 21.0894 11.7074C20.8214 10.9223 20.3159 10.24 19.6429 9.7549C18.97 9.26982 18.1629 9.00597 17.3333 8.99988C16.9442 9.00763 16.5582 9.07048 16.1867 9.18655C15.666 8.74908 15.0815 8.39386 14.4533 8.13321C15.1135 7.62276 15.5976 6.91861 15.8376 6.11936C16.0777 5.32011 16.0617 4.46579 15.792 3.67605C15.5223 2.88631 15.0124 2.2007 14.3336 1.71523C13.6548 1.22976 12.8412 0.96875 12.0067 0.96875C11.1721 0.96875 10.3585 1.22976 9.67974 1.71523C9.00095 2.2007 8.49101 2.88631 8.22131 3.67605C7.95161 4.46579 7.93568 5.32011 8.17573 6.11936C8.41578 6.91861 8.8998 7.62276 9.56 8.13321C8.92387 8.38008 8.33351 8.7316 7.81333 9.17321C7.21661 8.99466 6.58643 8.95792 5.97299 9.06594C5.35956 9.17396 4.77983 9.42373 4.27999 9.79538C3.78014 10.167 3.374 10.6503 3.09391 11.2066C2.81381 11.7629 2.66752 12.377 2.66667 12.9999C2.67016 13.6085 2.8125 14.2083 3.08284 14.7536C3.35317 15.2989 3.74438 15.7753 4.22667 16.1465C2.98335 16.6355 1.91563 17.4868 1.16198 18.5899C0.408321 19.6931 0.00349527 20.9972 0 22.3332V23.6665C0 24.0202 0.140476 24.3593 0.390524 24.6094C0.640573 24.8594 0.979711 24.9999 1.33333 24.9999H16C16.3536 24.9999 16.6928 24.8594 16.9428 24.6094C17.1929 24.3593 17.3333 24.0202 17.3333 23.6665C17.3333 23.3129 17.1929 22.9738 16.9428 22.7237C16.6928 22.4737 16.3536 22.3332 16 22.3332H13.3333C13.3333 21.2723 13.7548 20.2549 14.5049 19.5048C15.2551 18.7546 16.2725 18.3332 17.3333 18.3332C18.3942 18.3332 19.4116 18.7546 20.1618 19.5048C20.9119 20.2549 21.3333 21.2723 21.3333 22.3332C20.9797 22.3332 20.6406 22.4737 20.3905 22.7237C20.1405 22.9738 20 23.3129 20 23.6665C20 24.0202 20.1405 24.3593 20.3905 24.6094C20.6406 24.8594 20.9797 24.9999 21.3333 24.9999H22.6667C23.0203 24.9999 23.3594 24.8594 23.6095 24.6094C23.8595 24.3593 24 24.0202 24 23.6665V22.3332C23.9965 20.9972 23.5917 19.6931 22.838 18.5899C22.0844 17.4868 21.0166 16.6355 19.7733 16.1465ZM18.6667 12.9999C18.6667 13.2636 18.5885 13.5214 18.442 13.7406C18.2955 13.9599 18.0872 14.1308 17.8436 14.2317C17.5999 14.3326 17.3319 14.359 17.0732 14.3076C16.8146 14.2561 16.577 14.1292 16.3905 13.9427C16.2041 13.7562 16.0771 13.5186 16.0256 13.26C15.9742 13.0014 16.0006 12.7333 16.1015 12.4896C16.2024 12.246 16.3733 12.0378 16.5926 11.8913C16.8118 11.7447 17.0696 11.6665 17.3333 11.6665C17.687 11.6665 18.0261 11.807 18.2761 12.0571C18.5262 12.3071 18.6667 12.6463 18.6667 12.9999ZM12 3.66655C12.2637 3.66655 12.5215 3.74474 12.7408 3.89125C12.96 4.03776 13.1309 4.246 13.2318 4.48963C13.3328 4.73327 13.3592 5.00136 13.3077 5.26C13.2563 5.51864 13.1293 5.75622 12.9428 5.94269C12.7563 6.12916 12.5188 6.25615 12.2601 6.30759C12.0015 6.35904 11.7334 6.33264 11.4898 6.23172C11.2461 6.1308 11.0379 5.95991 10.8914 5.74064C10.7449 5.52137 10.6667 5.26359 10.6667 4.99988C10.6667 4.64626 10.8071 4.30712 11.0572 4.05707C11.3072 3.80702 11.6464 3.66655 12 3.66655ZM6.66667 11.6665C6.93038 11.6665 7.18816 11.7447 7.40743 11.8913C7.62669 12.0378 7.79759 12.246 7.89851 12.4896C7.99942 12.7333 8.02583 13.0014 7.97438 13.26C7.92293 13.5186 7.79595 13.7562 7.60948 13.9427C7.42301 14.1292 7.18543 14.2561 6.92679 14.3076C6.66815 14.359 6.40006 14.3326 6.15642 14.2317C5.91279 14.1308 5.70455 13.9599 5.55804 13.7406C5.41153 13.5214 5.33333 13.2636 5.33333 12.9999C5.33333 12.6463 5.47381 12.3071 5.72386 12.0571C5.97391 11.807 6.31305 11.6665 6.66667 11.6665ZM6.66667 18.3332C7.72753 18.3332 8.74495 18.7546 9.49509 19.5048C10.2452 20.2549 10.6667 21.2723 10.6667 22.3332H2.66667C2.66667 21.2723 3.08809 20.2549 3.83824 19.5048C4.58839 18.7546 5.6058 18.3332 6.66667 18.3332ZM12 18.3332C11.2615 17.3362 10.2595 16.5651 9.10667 16.1065C9.89761 15.5081 10.4333 14.6329 10.6063 13.6563C10.7794 12.6797 10.5771 11.6737 10.04 10.8399C10.6431 10.5177 11.3163 10.3492 12 10.3492C12.6837 10.3492 13.3569 10.5177 13.96 10.8399C13.4229 11.6737 13.2206 12.6797 13.3937 13.6563C13.5667 14.6329 14.1024 15.5081 14.8933 16.1065C13.7405 16.5651 12.7385 17.3362 12 18.3332Z" fill="#6F96AA"/>
</svg>
