<svg width="30" height="32" viewBox="0 0 30 32" fill="none" xmlns="http://www.w3.org/2000/svg">
<path d="M28 13.3332C27.9962 12.1538 27.6015 11.0089 26.8778 10.0777C26.154 9.14643 25.142 8.48137 24 8.18652V5.33319C23.9997 5.11823 23.9473 4.90654 23.8475 4.71617C23.7477 4.52579 23.6033 4.36238 23.4267 4.23985C23.2519 4.11824 23.0506 4.04026 22.8395 4.01242C22.6284 3.98458 22.4137 4.00771 22.2134 4.07985L10.5734 8.30652L5.41336 7.99985C5.2309 7.98809 5.04797 8.01398 4.87594 8.07591C4.70391 8.13784 4.54645 8.23449 4.41336 8.35985C4.28173 8.48533 4.17716 8.63641 4.10607 8.80379C4.03499 8.97118 3.9989 9.15134 4.00003 9.33319V18.6665C4.00027 18.8558 4.04082 19.0429 4.11898 19.2153C4.19715 19.3878 4.31113 19.5416 4.45336 19.6665C4.59447 19.79 4.76003 19.8823 4.93923 19.9374C5.11843 19.9926 5.30725 20.0093 5.49336 19.9865L7.24003 19.7732L8.49336 26.8932C8.54733 27.2062 8.7113 27.4897 8.95575 27.6926C9.20019 27.8955 9.50905 28.0045 9.82669 27.9999H14.6667C14.8613 28.0024 15.0541 27.9622 15.2315 27.8823C15.4089 27.8024 15.5667 27.6846 15.6938 27.5372C15.8208 27.3898 15.9141 27.2164 15.967 27.0291C16.0199 26.8419 16.0312 26.6453 16 26.4532L15.0134 20.5865L22.3067 22.6665C22.4259 22.6859 22.5475 22.6859 22.6667 22.6665C23.0203 22.6665 23.3595 22.526 23.6095 22.276C23.8595 22.0259 24 21.6868 24 21.3332V18.4799C25.142 18.185 26.154 17.5199 26.8778 16.5887C27.6015 15.6575 27.9962 14.5126 28 13.3332ZM6.66669 10.7465L9.33336 10.8932V16.8265L6.66669 17.1599V10.7465ZM13.0934 25.3332H10.9334L9.89336 19.4399L10.5734 19.3599L12.1734 19.7999L13.0934 25.3332ZM21.3334 19.5732L14.0667 17.5599C13.8497 17.4141 13.5947 17.3352 13.3334 17.3332L12 16.9599V10.6665L21.3334 7.27985V19.5732ZM24 15.5732V11.0399C24.398 11.276 24.7276 11.6116 24.9566 12.0136C25.1855 12.4157 25.3059 12.8705 25.3059 13.3332C25.3059 13.7959 25.1855 14.2506 24.9566 14.6527C24.7276 15.0548 24.398 15.3904 24 15.6265V15.5732Z" fill="#4E7D96"/>
</svg>
