<svg width="32" height="33" viewBox="0 0 32 33" fill="none" xmlns="http://www.w3.org/2000/svg">
<path d="M26.6667 9.83333H22.6667V5.83333C22.6667 5.47971 22.5262 5.14057 22.2761 4.89052C22.0261 4.64048 21.687 4.5 21.3333 4.5H10.6667C10.313 4.5 9.97391 4.64048 9.72386 4.89052C9.47381 5.14057 9.33333 5.47971 9.33333 5.83333V9.83333H5.33333C4.97971 9.83333 4.64057 9.97381 4.39052 10.2239C4.14048 10.4739 4 10.813 4 11.1667V27.1667C4 27.5203 4.14048 27.8594 4.39052 28.1095C4.64057 28.3595 4.97971 28.5 5.33333 28.5H9.33333C9.68696 28.5 10.0261 28.3595 10.2761 28.1095C10.5262 27.8594 10.6667 27.5203 10.6667 27.1667C10.6667 26.813 10.5262 26.4739 10.2761 26.2239C10.0261 25.9738 9.68696 25.8333 9.33333 25.8333H6.66667V19.1667H12V20.5C12 20.8536 12.1405 21.1928 12.3905 21.4428C12.6406 21.6929 12.9797 21.8333 13.3333 21.8333H18.6667C19.0203 21.8333 19.3594 21.6929 19.6095 21.4428C19.8595 21.1928 20 20.8536 20 20.5V19.1667H25.3333V25.8333H14.6667C14.313 25.8333 13.9739 25.9738 13.7239 26.2239C13.4738 26.4739 13.3333 26.813 13.3333 27.1667C13.3333 27.5203 13.4738 27.8594 13.7239 28.1095C13.9739 28.3595 14.313 28.5 14.6667 28.5H26.6667C27.0203 28.5 27.3594 28.3595 27.6095 28.1095C27.8595 27.8594 28 27.5203 28 27.1667V11.1667C28 10.813 27.8595 10.4739 27.6095 10.2239C27.3594 9.97381 27.0203 9.83333 26.6667 9.83333ZM12 7.16667H20V9.83333H12V7.16667ZM17.3333 19.1667H14.6667V16.5H17.3333V19.1667ZM20 16.5V15.1667C20 14.813 19.8595 14.4739 19.6095 14.2239C19.3594 13.9738 19.0203 13.8333 18.6667 13.8333H13.3333C12.9797 13.8333 12.6406 13.9738 12.3905 14.2239C12.1405 14.4739 12 14.813 12 15.1667V16.5H6.66667V12.5H25.3333V16.5H20Z" fill="#FF844B"/>
</svg>
