<svg width="32" height="32" viewBox="0 0 32 32" fill="none" xmlns="http://www.w3.org/2000/svg">
<path d="M26.6667 6.66667H22.6667V5.33333C22.6667 4.97971 22.5262 4.64057 22.2761 4.39052C22.0261 4.14048 21.687 4 21.3333 4C20.9797 4 20.6406 4.14048 20.3905 4.39052C20.1405 4.64057 20 4.97971 20 5.33333V6.66667H12V5.33333C12 4.97971 11.8595 4.64057 11.6095 4.39052C11.3594 4.14048 11.0203 4 10.6667 4C10.313 4 9.97391 4.14048 9.72386 4.39052C9.47381 4.64057 9.33333 4.97971 9.33333 5.33333V6.66667H5.33333C4.97971 6.66667 4.64057 6.80714 4.39052 7.05719C4.14048 7.30724 4 7.64638 4 8V26.6667C4 27.0203 4.14048 27.3594 4.39052 27.6095C4.64057 27.8595 4.97971 28 5.33333 28H26.6667C27.0203 28 27.3594 27.8595 27.6095 27.6095C27.8595 27.3594 28 27.0203 28 26.6667V8C28 7.64638 27.8595 7.30724 27.6095 7.05719C27.3594 6.80714 27.0203 6.66667 26.6667 6.66667ZM6.66667 25.3333V16H18.6667C19.0203 16 19.3594 15.8595 19.6095 15.6095C19.8595 15.3594 20 15.0203 20 14.6667C20 14.313 19.8595 13.9739 19.6095 13.7239C19.3594 13.4738 19.0203 13.3333 18.6667 13.3333H6.66667V9.33333H9.33333V10.6667C9.33333 11.0203 9.47381 11.3594 9.72386 11.6095C9.97391 11.8595 10.313 12 10.6667 12C11.0203 12 11.3594 11.8595 11.6095 11.6095C11.8595 11.3594 12 11.0203 12 10.6667V9.33333H20V10.6667C20 11.0203 20.1405 11.3594 20.3905 11.6095C20.6406 11.8595 20.9797 12 21.3333 12C21.687 12 22.0261 11.8595 22.2761 11.6095C22.5262 11.3594 22.6667 11.0203 22.6667 10.6667V9.33333H25.3333V13.3333H22.6667C22.313 13.3333 21.9739 13.4738 21.7239 13.7239C21.4738 13.9739 21.3333 14.313 21.3333 14.6667C21.3333 15.0203 21.4738 15.3594 21.7239 15.6095C21.9739 15.8595 22.313 16 22.6667 16H25.3333V25.3333H6.66667Z" fill="#6F96AA"/>
</svg>
