<svg width="32" height="32" viewBox="0 0 32 32" fill="none" xmlns="http://www.w3.org/2000/svg">
<path d="M21.8266 11.3467C22.4728 11.7697 23.2276 11.9966 24 12C24.7911 12 25.5645 11.7654 26.2223 11.3259C26.8801 10.8864 27.3927 10.2616 27.6955 9.53074C27.9982 8.79983 28.0775 7.99556 27.9231 7.21964C27.7688 6.44372 27.3878 5.73098 26.8284 5.17157C26.269 4.61216 25.5563 4.2312 24.7803 4.07686C24.0044 3.92252 23.2001 4.00173 22.4692 4.30448C21.7383 4.60723 21.1136 5.11992 20.6741 5.77772C20.2346 6.43552 20 7.20888 20 8C20.0036 8.40799 20.0711 8.8129 20.2 9.2L18.1333 11.2933C17.3615 10.8054 16.446 10.5962 15.5388 10.7005C14.6317 10.8048 13.7876 11.2163 13.1466 11.8667L11.92 11.4667C11.9743 11.2035 12.0011 10.9354 12 10.6667C12.0035 9.76133 11.6998 8.88157 11.1385 8.17121C10.5772 7.46085 9.79157 6.96192 8.90996 6.75596C8.02836 6.55 7.10296 6.64921 6.28504 7.03737C5.46713 7.42553 4.80508 8.07967 4.40714 8.89287C4.00919 9.70607 3.89888 10.6302 4.09424 11.5142C4.2896 12.3982 4.77908 13.1898 5.48265 13.7596C6.18622 14.3294 7.06227 14.6436 7.96758 14.6509C8.8729 14.6583 9.75393 14.3583 10.4666 13.8L12 14.3067C11.9934 14.4266 11.9934 14.5468 12 14.6667C12 15.7275 12.4214 16.745 13.1715 17.4951C13.9217 18.2452 14.9391 18.6667 16 18.6667C17.0608 18.6667 18.0783 18.2452 18.8284 17.4951C19.5785 16.745 20 15.7275 20 14.6667C19.9909 14.2407 19.919 13.8184 19.7866 13.4133L21.8266 11.3467ZM24 6.66667C24.2637 6.66667 24.5215 6.74487 24.7407 6.89138C24.96 7.03788 25.1309 7.24612 25.2318 7.48976C25.3327 7.73339 25.3591 8.00148 25.3077 8.26012C25.2562 8.51876 25.1293 8.75634 24.9428 8.94281C24.7563 9.12928 24.5187 9.25627 24.2601 9.30772C24.0015 9.35916 23.7334 9.33276 23.4897 9.23184C23.2461 9.13092 23.0379 8.96003 22.8913 8.74076C22.7448 8.5215 22.6666 8.26371 22.6666 8C22.6666 7.64638 22.8071 7.30724 23.0572 7.05719C23.3072 6.80714 23.6464 6.66667 24 6.66667ZM6.66664 10.6667C6.66664 10.403 6.74484 10.1452 6.89135 9.92591C7.03786 9.70664 7.24609 9.53575 7.48973 9.43483C7.73336 9.33391 8.00145 9.30751 8.26009 9.35895C8.51874 9.4104 8.75631 9.53739 8.94278 9.72386C9.12925 9.91033 9.25624 10.1479 9.30769 10.4065C9.35913 10.6652 9.33273 10.9333 9.23181 11.1769C9.1309 11.4205 8.96 11.6288 8.74073 11.7753C8.52147 11.9218 8.26368 12 7.99997 12C7.64635 12 7.30721 11.8595 7.05717 11.6095C6.80712 11.3594 6.66664 11.0203 6.66664 10.6667ZM16 16C15.7363 16 15.4785 15.9218 15.2592 15.7753C15.0399 15.6288 14.8691 15.4205 14.7681 15.1769C14.6672 14.9333 14.6408 14.6652 14.6923 14.4065C14.7437 14.1479 14.8707 13.9103 15.0572 13.7239C15.2436 13.5374 15.4812 13.4104 15.7399 13.359C15.9985 13.3075 16.2666 13.3339 16.5102 13.4348C16.7539 13.5357 16.9621 13.7066 17.1086 13.9259C17.2551 14.1452 17.3333 14.403 17.3333 14.6667C17.3333 15.0203 17.1928 15.3594 16.9428 15.6095C16.6927 15.8595 16.3536 16 16 16Z" fill="#7D6AEB"/>
<path d="M10.6668 16.0002H6.66683C6.31321 16.0002 5.97407 16.1406 5.72402 16.3907C5.47397 16.6407 5.3335 16.9799 5.3335 17.3335V26.6668C5.3335 27.0205 5.47397 27.3596 5.72402 27.6096C5.97407 27.8597 6.31321 28.0002 6.66683 28.0002H10.6668C11.0205 28.0002 11.3596 27.8597 11.6096 27.6096C11.8597 27.3596 12.0002 27.0205 12.0002 26.6668V17.3335C12.0002 16.9799 11.8597 16.6407 11.6096 16.3907C11.3596 16.1406 11.0205 16.0002 10.6668 16.0002ZM9.3335 25.3335H8.00016V18.6668H9.3335V25.3335ZM26.6668 13.3335H22.6668C22.3132 13.3335 21.9741 13.474 21.724 13.724C21.474 13.9741 21.3335 14.3132 21.3335 14.6668V26.6668C21.3335 27.0205 21.474 27.3596 21.724 27.6096C21.9741 27.8597 22.3132 28.0002 22.6668 28.0002H26.6668C27.0205 28.0002 27.3596 27.8597 27.6096 27.6096C27.8597 27.3596 28.0002 27.0205 28.0002 26.6668V22.6668C28.0002 22.3132 27.8597 21.9741 27.6096 21.724C27.3596 21.474 27.0205 21.3335 26.6668 21.3335C26.3132 21.3335 25.9741 21.474 25.724 21.724C25.474 21.9741 25.3335 22.3132 25.3335 22.6668V25.3335H24.0002V16.0002H25.3335V18.6668C25.3335 19.0205 25.474 19.3596 25.724 19.6096C25.9741 19.8597 26.3132 20.0002 26.6668 20.0002C27.0205 20.0002 27.3596 19.8597 27.6096 19.6096C27.8597 19.3596 28.0002 19.0205 28.0002 18.6668V14.6668C28.0002 14.3132 27.8597 13.9741 27.6096 13.724C27.3596 13.474 27.0205 13.3335 26.6668 13.3335ZM18.6668 20.0002H14.6668C14.3132 20.0002 13.9741 20.1406 13.724 20.3907C13.474 20.6407 13.3335 20.9799 13.3335 21.3335V26.6668C13.3335 27.0205 13.474 27.3596 13.724 27.6096C13.9741 27.8597 14.3132 28.0002 14.6668 28.0002H18.6668C19.0205 28.0002 19.3596 27.8597 19.6096 27.6096C19.8597 27.3596 20.0002 27.0205 20.0002 26.6668V21.3335C20.0002 20.9799 19.8597 20.6407 19.6096 20.3907C19.3596 20.1406 19.0205 20.0002 18.6668 20.0002ZM17.3335 25.3335H16.0002V22.6668H17.3335V25.3335Z" fill="#7D6AEB"/>
</svg>
