<svg width="28" height="27" viewBox="0 0 28 27" fill="none" xmlns="http://www.w3.org/2000/svg">
<path d="M22 12.68C21.6464 12.68 21.3073 12.8205 21.0572 13.0705C20.8072 13.3206 20.6667 13.6597 20.6667 14.0133V23.3467H18V16.68C18 16.3264 17.8596 15.9872 17.6095 15.7372C17.3595 15.4871 17.0203 15.3467 16.6667 15.3467H11.3334C10.9798 15.3467 10.6406 15.4871 10.3906 15.7372C10.1405 15.9872 10 16.3264 10 16.68V23.3467H7.33338V14.0133C7.33338 13.6597 7.1929 13.3206 6.94285 13.0705C6.6928 12.8205 6.35366 12.68 6.00004 12.68C5.64642 12.68 5.30728 12.8205 5.05723 13.0705C4.80719 13.3206 4.66671 13.6597 4.66671 14.0133V24.68C4.66671 25.0336 4.80719 25.3728 5.05723 25.6228C5.30728 25.8729 5.64642 26.0133 6.00004 26.0133H22C22.3537 26.0133 22.6928 25.8729 22.9429 25.6228C23.1929 25.3728 23.3334 25.0336 23.3334 24.68V14.0133C23.3334 13.6597 23.1929 13.3206 22.9429 13.0705C22.6928 12.8205 22.3537 12.68 22 12.68ZM15.3334 23.3467H12.6667V18.0133H15.3334V23.3467ZM27.1334 13C27.0084 13.1422 26.8546 13.2562 26.6822 13.3344C26.5098 13.4125 26.3227 13.4531 26.1334 13.4533C25.8093 13.4529 25.4964 13.3344 25.2534 13.12L14 3.14667L2.74671 13.0667C2.6169 13.1914 2.46319 13.2885 2.29485 13.3521C2.1265 13.4158 1.947 13.4448 1.76717 13.4372C1.58734 13.4297 1.4109 13.3858 1.24848 13.3082C1.08607 13.2307 0.941034 13.121 0.822128 12.9859C0.703222 12.8508 0.612905 12.693 0.556619 12.522C0.500333 12.3511 0.479244 12.1705 0.494622 11.9911C0.51 11.8118 0.561528 11.6375 0.646099 11.4786C0.730671 11.3197 0.846535 11.1796 0.98671 11.0667L13.12 0.400005C13.3634 0.186246 13.6762 0.0683594 14 0.0683594C14.3239 0.0683594 14.6367 0.186246 14.88 0.400005L27.0134 11.0667C27.1525 11.1829 27.2665 11.3263 27.3484 11.488C27.4303 11.6498 27.4783 11.8265 27.4895 12.0075C27.5008 12.1885 27.475 12.3698 27.4137 12.5405C27.3525 12.7111 27.2571 12.8675 27.1334 13Z" fill="#FF844B"/>
</svg>
