<svg width="32" height="33" viewBox="0 0 32 33" fill="none" xmlns="http://www.w3.org/2000/svg">
<path d="M28.0003 17.6198C27.9492 17.3043 27.7865 17.0176 27.5417 16.8121C27.297 16.6065 26.9866 16.4957 26.667 16.4998H21.3336C21.5282 16.5023 21.721 16.4622 21.8984 16.3823C22.0759 16.3023 22.2337 16.1845 22.3607 16.0371C22.4878 15.8898 22.581 15.7163 22.6339 15.5291C22.6869 15.3418 22.6981 15.1452 22.667 14.9531L21.3336 6.95312C21.2825 6.63762 21.1198 6.35097 20.8751 6.1454C20.6303 5.93983 20.3199 5.82901 20.0003 5.83312H12.0003C11.6807 5.82901 11.3703 5.93983 11.1256 6.1454C10.8808 6.35097 10.7181 6.63762 10.667 6.95312L9.33364 14.9531C9.30315 15.1446 9.3148 15.3404 9.36776 15.527C9.42073 15.7135 9.51374 15.8862 9.64031 16.0331C9.76695 16.1812 9.9245 16.2997 10.1019 16.3803C10.2793 16.461 10.4721 16.5017 10.667 16.4998H5.33364C5.01406 16.4957 4.70362 16.6065 4.45889 16.8121C4.21416 17.0176 4.05142 17.3043 4.00031 17.6198L2.66698 25.6198C2.63649 25.8113 2.64813 26.0071 2.7011 26.1936C2.75406 26.3802 2.84707 26.5529 2.97364 26.6998C3.10028 26.8479 3.25783 26.9664 3.43521 27.047C3.61259 27.1276 3.80548 27.1684 4.00031 27.1665H14.667C14.8596 27.1665 15.0499 27.1248 15.2248 27.0442C15.3997 26.9636 15.5551 26.8461 15.6803 26.6998C15.8069 26.5529 15.8999 26.3802 15.9529 26.1936C16.0058 26.0071 16.0175 25.8113 15.987 25.6198L14.6536 17.6198C14.6029 17.3066 14.4421 17.0217 14.2001 16.8164C13.9582 16.6111 13.6509 16.4989 13.3336 16.4998H18.667C18.3474 16.4957 18.037 16.6065 17.7922 16.8121C17.5475 17.0176 17.3848 17.3043 17.3336 17.6198L16.0003 25.6198C15.9698 25.8113 15.9815 26.0071 16.0344 26.1936C16.0874 26.3802 16.1804 26.5529 16.307 26.6998C16.4336 26.8479 16.5912 26.9664 16.7685 27.047C16.9459 27.1276 17.1388 27.1684 17.3336 27.1665H21.3336C21.6873 27.1665 22.0264 27.026 22.2765 26.7759C22.5265 26.5259 22.667 26.1867 22.667 25.8331C22.667 25.4795 22.5265 25.1404 22.2765 24.8903C22.0264 24.6403 21.6873 24.4998 21.3336 24.4998H18.907L19.8003 19.1665H25.5336L26.427 24.4998H25.3336C24.98 24.4998 24.6409 24.6403 24.3908 24.8903C24.1408 25.1404 24.0003 25.4795 24.0003 25.8331C24.0003 26.1867 24.1408 26.5259 24.3908 26.7759C24.6409 27.026 24.98 27.1665 25.3336 27.1665H28.0003C28.1949 27.169 28.3877 27.1288 28.5651 27.0489C28.7425 26.969 28.9003 26.8512 29.0274 26.7038C29.1544 26.5564 29.2477 26.383 29.3006 26.1957C29.3535 26.0085 29.3648 25.8119 29.3336 25.6198L28.0003 17.6198ZM5.57364 24.4998L6.46698 19.1665H12.2003L13.0936 24.4998H5.57364ZM12.2403 13.8331L13.1336 8.49979H18.867L19.7603 13.8331H12.2403Z" fill="#FF606B"/>
</svg>
