<svg width="30" height="32" viewBox="0 0 30 32" fill="none" xmlns="http://www.w3.org/2000/svg">
<path d="M28.4265 12.2309L25.9065 11.424L27.0932 9.14438C27.2135 8.90577 27.2537 8.63718 27.2083 8.37566C27.163 8.11415 27.0342 7.87261 26.8398 7.68437L23.9998 4.95646C23.8028 4.76702 23.5489 4.64167 23.2739 4.59802C22.9989 4.55437 22.7165 4.59463 22.4665 4.71312L20.0932 5.85296L19.2532 3.43241C19.1645 3.1801 18.9961 2.96063 18.7714 2.80454C18.5468 2.64845 18.2771 2.56351 17.9998 2.56153H13.9998C13.7203 2.56083 13.4476 2.64454 13.2203 2.80082C12.993 2.95709 12.8226 3.17804 12.7332 3.43241L11.8932 5.85296L9.51984 4.71312C9.27142 4.59758 8.99179 4.55893 8.71954 4.60251C8.44728 4.6461 8.19582 4.76977 7.99984 4.95646L5.15984 7.68437C4.96262 7.87362 4.83212 8.11748 4.78668 8.38166C4.74123 8.64585 4.78314 8.91707 4.90651 9.15719L6.09317 11.4369L3.57318 12.2437C3.3105 12.3289 3.08201 12.4907 2.91951 12.7064C2.757 12.9222 2.66857 13.1813 2.66651 13.4476V17.2897C2.66579 17.5582 2.75293 17.8201 2.91563 18.0384C3.07833 18.2568 3.30835 18.4205 3.57318 18.5064L6.09317 19.3132L4.90651 21.5929C4.78621 21.8315 4.74598 22.1001 4.79136 22.3616C4.83673 22.6231 4.96548 22.8647 5.15984 23.0529L7.99984 25.7808C8.19686 25.9703 8.45074 26.0956 8.72578 26.1393C9.00082 26.1829 9.28319 26.1427 9.53317 26.0242L11.9065 24.8843L12.7465 27.3049C12.836 27.5592 13.0064 27.7802 13.2337 27.9365C13.461 28.0927 13.7336 28.1764 14.0132 28.1757H18.0132C18.2927 28.1764 18.5654 28.0927 18.7927 27.9365C19.02 27.7802 19.1904 27.5592 19.2798 27.3049L20.1198 24.8843L22.4932 26.0242C22.74 26.1368 23.0169 26.1738 23.2864 26.1303C23.5559 26.0868 23.8049 25.9648 23.9998 25.7808L26.8398 23.0529C27.0371 22.8637 27.1676 22.6198 27.213 22.3556C27.2584 22.0914 27.2165 21.8202 27.0932 21.5801L25.9065 19.3004L28.4265 18.4936C28.6892 18.4084 28.9177 18.2466 29.0802 18.0308C29.2427 17.8151 29.3311 17.556 29.3332 17.2897V13.4476C29.3339 13.1791 29.2467 12.9172 29.0841 12.6988C28.9214 12.4805 28.6913 12.3168 28.4265 12.2309ZM26.6665 16.3676L25.0665 16.8799C24.6986 16.9945 24.361 17.1847 24.0772 17.4371C23.7935 17.6896 23.5703 17.9983 23.4231 18.3419C23.276 18.6855 23.2084 19.0557 23.2251 19.4269C23.2418 19.7981 23.3424 20.1614 23.5198 20.4915L24.2798 21.9515L22.8132 23.3603L21.3332 22.5918C20.9912 22.4282 20.6167 22.3371 20.2349 22.3246C19.8531 22.3121 19.473 22.3785 19.1203 22.5194C18.7675 22.6602 18.4504 22.8722 18.1904 23.1411C17.9304 23.4099 17.7335 23.7292 17.6132 24.0775L17.0798 25.6143H14.9598L14.4265 24.0775C14.3072 23.7241 14.1092 23.3998 13.8464 23.1273C13.5835 22.8547 13.2621 22.6403 12.9044 22.4989C12.5467 22.3576 12.1612 22.2927 11.7748 22.3088C11.3884 22.3248 11.0102 22.4214 10.6665 22.5918L9.14651 23.3219L7.67984 21.9131L8.47984 20.4915C8.6573 20.1614 8.75787 19.7981 8.77457 19.4269C8.79127 19.0557 8.7237 18.6855 8.57656 18.3419C8.42941 17.9983 8.20621 17.6896 7.92243 17.4371C7.63866 17.1847 7.3011 16.9945 6.93317 16.8799L5.33317 16.3676V14.3697L6.93317 13.8574C7.3011 13.7428 7.63866 13.5526 7.92243 13.3002C8.20621 13.0477 8.42941 12.739 8.57656 12.3954C8.7237 12.0518 8.79127 11.6815 8.77457 11.3104C8.75787 10.9392 8.6573 10.5759 8.47984 10.2458L7.71984 8.8242L9.18651 7.41542L10.6665 8.14543C11.0102 8.31588 11.3884 8.41248 11.7748 8.42852C12.1612 8.44457 12.5467 8.37967 12.9044 8.23833C13.2621 8.09699 13.5835 7.8826 13.8464 7.61002C14.1092 7.33744 14.3072 7.01321 14.4265 6.6598L14.9598 5.12295H17.0398L17.5732 6.6598C17.6925 7.01321 17.8905 7.33744 18.1533 7.61002C18.4161 7.8826 18.7376 8.09699 19.0953 8.23833C19.453 8.37967 19.8384 8.44457 20.2249 8.42852C20.6113 8.41248 20.9895 8.31588 21.3332 8.14543L22.8532 7.41542L24.3198 8.8242L23.5198 10.2458C23.3495 10.5742 23.2546 10.934 23.2416 11.3007C23.2285 11.6674 23.2977 12.0326 23.4444 12.3714C23.591 12.7102 23.8118 13.0148 24.0916 13.2645C24.3715 13.5143 24.704 13.7034 25.0665 13.819L26.6665 14.3313V16.3676ZM15.9998 10.2458C14.945 10.2458 13.9139 10.5462 13.0368 11.1091C12.1597 11.6721 11.4762 12.4721 11.0725 13.4082C10.6688 14.3443 10.5632 15.3743 10.769 16.3681C10.9748 17.3618 11.4827 18.2746 12.2286 18.991C12.9745 19.7075 13.9248 20.1954 14.9594 20.393C15.9939 20.5907 17.0663 20.4893 18.0408 20.1015C19.0154 19.7138 19.8483 19.0572 20.4343 18.2147C21.0204 17.3723 21.3332 16.3818 21.3332 15.3686C21.3332 14.01 20.7713 12.707 19.7711 11.7462C18.7709 10.7855 17.4143 10.2458 15.9998 10.2458ZM15.9998 17.9301C15.4724 17.9301 14.9569 17.7798 14.5183 17.4984C14.0798 17.2169 13.738 16.8169 13.5362 16.3489C13.3343 15.8808 13.2815 15.3658 13.3844 14.8689C13.4873 14.3721 13.7413 13.9157 14.1142 13.5574C14.4872 13.1992 14.9623 12.9553 15.4796 12.8564C15.9969 12.7576 16.5331 12.8083 17.0203 13.0022C17.5076 13.1961 17.9241 13.5244 18.2171 13.9456C18.5101 14.3668 18.6665 14.862 18.6665 15.3686C18.6665 16.048 18.3856 16.6995 17.8855 17.1798C17.3854 17.6602 16.7071 17.9301 15.9998 17.9301Z" fill="#4E7D96"/>
</svg>
