<?xml version="1.0" standalone="no"?>
<!DOCTYPE svg PUBLIC "-//W3C//DTD SVG 1.0//EN" "http://www.w3.org/TR/2001/REC-SVG-20010904/DTD/svg10.dtd">
<svg xmlns="http://www.w3.org/2000/svg" xmlns:xlink="http://www.w3.org/1999/xlink" id="body_1" width="24" height="24">

<g transform="matrix(0.85714287 0 0 0.85714287 0 0)">
    <path d="M26.0932 20.4399L23.3332 17.6133C 22.7396 17.0489 21.9907 16.675 21.1829 16.5396C 20.375 16.4042 19.5452 16.5134 18.7999 16.8533L18.7999 16.8533L17.5999 15.6533C 19.014 13.7638 19.6598 11.4088 19.4073 9.06237C 19.1548 6.71591 18.0228 4.55222 16.2391 3.00686C 14.4555 1.46149 12.1526 0.649198 9.79412 0.733501C 7.43563 0.817805 5.19664 1.79244 3.52786 3.46121C 1.85909 5.12999 0.884455 7.36898 0.800152 9.72748C 0.715848 12.086 1.52814 14.3888 3.07351 16.1725C 4.61887 17.9562 6.78257 19.0882 9.12902 19.3406C 11.4755 19.5931 13.8305 18.9473 15.7199 17.5333L15.7199 17.5333L16.9066 18.7199C 16.5267 19.4661 16.3905 20.3127 16.5173 21.1403C 16.6441 21.968 17.0274 22.735 17.6132 23.3333L17.6132 23.3333L20.4399 26.1599C 21.1899 26.909 22.2066 27.3297 23.2666 27.3297C 24.3266 27.3297 25.3432 26.909 26.0932 26.1599C 26.4742 25.7874 26.7769 25.3425 26.9836 24.8514C 27.1903 24.3602 27.2967 23.8328 27.2967 23.2999C 27.2967 22.7671 27.1903 22.2396 26.9836 21.7485C 26.7769 21.2573 26.4742 20.8124 26.0932 20.4399zM14.7866 14.7866C 13.8536 15.7173 12.6656 16.3505 11.3729 16.6064C 10.0801 16.8623 8.74057 16.7293 7.52337 16.2242C 6.30618 15.7191 5.26599 14.8646 4.53419 13.7686C 3.80239 12.6727 3.41182 11.3844 3.41182 10.0666C 3.41182 8.74876 3.80239 7.4605 4.53419 6.36454C 5.26599 5.26858 6.30618 4.41408 7.52337 3.90901C 8.74057 3.40393 10.0801 3.27092 11.3729 3.52679C 12.6656 3.78266 13.8536 4.41592 14.7866 5.34659C 15.4074 5.96586 15.9 6.70154 16.2361 7.51147C 16.5722 8.32141 16.7452 9.18969 16.7452 10.0666C 16.7452 10.9435 16.5722 11.8118 16.2361 12.6217C 15.9 13.4316 15.4074 14.1673 14.7866 14.7866zM24.2132 24.2133C 24.0893 24.3382 23.9418 24.4374 23.7793 24.5051C 23.6169 24.5728 23.4426 24.6077 23.2666 24.6077C 23.0906 24.6077 22.9163 24.5728 22.7538 24.5051C 22.5913 24.4374 22.4439 24.3382 22.3199 24.2133L22.3199 24.2133L19.4932 21.3866C 19.3683 21.2626 19.2691 21.1152 19.2014 20.9527C 19.1337 20.7902 19.0988 20.6159 19.0988 20.4399C 19.0988 20.2639 19.1337 20.0896 19.2014 19.9272C 19.2691 19.7647 19.3683 19.6172 19.4932 19.4933C 19.6172 19.3683 19.7647 19.2691 19.9271 19.2014C 20.0896 19.1337 20.2639 19.0989 20.4399 19.0989C 20.6159 19.0989 20.7902 19.1337 20.9527 19.2014C 21.1152 19.2691 21.2626 19.3683 21.3866 19.4933L21.3866 19.4933L24.2132 22.3199C 24.3382 22.4439 24.4374 22.5913 24.5051 22.7538C 24.5728 22.9163 24.6076 23.0906 24.6076 23.2666C 24.6076 23.4426 24.5728 23.6169 24.5051 23.7794C 24.4374 23.9418 24.3382 24.0893 24.2132 24.2133z" stroke="none" fill="#FF844B" fill-rule="nonzero" />
</g>
</svg>