<svg width="32" height="32" viewBox="0 0 32 32" fill="none" xmlns="http://www.w3.org/2000/svg">
<path d="M26.6667 11.9998H21.3333V5.33311C21.3333 5.10172 21.273 4.87432 21.1585 4.67328C21.0439 4.47223 20.879 4.30445 20.68 4.18645C20.4773 4.06942 20.2474 4.00781 20.0133 4.00781C19.7793 4.00781 19.5494 4.06942 19.3467 4.18645L4.68 12.1864C4.6077 12.2323 4.54063 12.286 4.48 12.3464L4.36 12.4398C4.25164 12.559 4.16175 12.6939 4.09334 12.8398C4.0239 12.9946 3.99193 13.1636 4 13.3331V26.6664C4 27.0201 4.14048 27.3592 4.39053 27.6093C4.64058 27.8593 4.97971 27.9998 5.33334 27.9998H10.6667C11.0203 27.9998 11.3594 27.8593 11.6095 27.6093C11.8595 27.3592 12 27.0201 12 26.6664C12 26.3128 11.8595 25.9737 11.6095 25.7236C11.3594 25.4736 11.0203 25.3331 10.6667 25.3331H6.66667V14.6664H25.3333V15.9998H21.3333C20.2725 15.9998 19.2551 16.4212 18.5049 17.1714C17.7548 17.9215 17.3333 18.9389 17.3333 19.9998C17.3333 21.0606 17.7548 22.0781 18.5049 22.8282C19.2551 23.5784 20.2725 23.9998 21.3333 23.9998H25.3333V25.3331H16C15.6464 25.3331 15.3072 25.4736 15.0572 25.7236C14.8071 25.9737 14.6667 26.3128 14.6667 26.6664C14.6667 27.0201 14.8071 27.3592 15.0572 27.6093C15.3072 27.8593 15.6464 27.9998 16 27.9998H26.6667C27.0203 27.9998 27.3594 27.8593 27.6095 27.6093C27.8595 27.3592 28 27.0201 28 26.6664V13.3331C28 12.9795 27.8595 12.6404 27.6095 12.3903C27.3594 12.1403 27.0203 11.9998 26.6667 11.9998ZM10.56 11.9998L18.6667 7.57311V11.9998H10.56ZM21.3333 21.3331C20.9797 21.3331 20.6406 21.1926 20.3905 20.9426C20.1405 20.6925 20 20.3534 20 19.9998C20 19.6462 20.1405 19.307 20.3905 19.057C20.6406 18.8069 20.9797 18.6664 21.3333 18.6664H25.3333V21.3331H21.3333Z" fill="#6F96AA"/>
</svg>
